# xmcd
#
# Track frame offsets:
#	150
#	17409
#	37339
#	53480
#	66144
#	82839
#
# Disc length: 1234 seconds
#
# Revision: 1
# Processed by: cddbd v1.5.2PL0 Copyright (c) Steve Scherf et al.
# Submitted via: audiograbber 1.83.01
#
DISCID=3f04d006
DTITLE=Dead Shades - Sea Shandies (EP)
DYEAR=2010
DGENRE=Blues
TTITLE0=Running
TTITLE1=Gimme my gun
TTITLE2=Early morning eyes
TTITLE3=Man eating woman
TTITLE4=Many faces
TTITLE5=Attack of the flat caps
EXTD=Brian 'Braan' L'Huillier\nDane 'Valentine' Beesley\nCrystle 'Fleepwood Mac
EXTD=' Fleper\n\nEngineering, mixing and production by Skritch Trembles at The 
EXTD=Borough\nMastering by Dave Neil at Modern Mastering
EXTT0=
EXTT1=
EXTT2=
EXTT3=
EXTT4=
EXTT5=
PLAYORDER=
